<?xml version="1.0" encoding="UTF-8" standalone="no"?>
<svg width="150px" height="42px" viewBox="0 0 150 42" version="1.1" xmlns="http://www.w3.org/2000/svg" xmlns:xlink="http://www.w3.org/1999/xlink">
    <!-- Generator: Sketch 48.2 (47327) - http://www.bohemiancoding.com/sketch -->
    <title>Logo</title>
    <desc>Created with Sketch.</desc>
    <defs>
        <polyline id="path-1" points="0 1.39382785 149.870918 1.39382785 149.870918 42.9332384 0 42.9332384"></polyline>
    </defs>
    <g id="login-screen" stroke="none" stroke-width="1" fill="none" fill-rule="evenodd" transform="translate(-645.000000, -126.000000)">
        <g id="Logo" transform="translate(645.000000, 125.000000)">
            <polygon id="Fill-1" fill="#000000" points="100.784694 16.8136279 106.370918 16.8136279 106.370918 36.8958564 100.784694 36.8958564"></polygon>
            <polyline id="Fill-2" fill="#000000" points="92.8617347 16.8136279 87.3908163 31.4265749 81.9209184 16.8136279 76.3341837 16.8136279 83.8561224 36.8958564 90.9265306 36.8958564 98.4464286 16.8136279 92.8617347 16.8136279"></polyline>
            <path d="M126.096939,21.2393062 L126.096939,16.8136279 L119.404592,16.8136279 L119.404592,11.2737718 L113.820918,11.2737718 L113.820918,16.8136279 L109.403571,16.8136279 L109.403571,21.2393062 L113.820918,21.2393062 L113.820918,29.8794395 C113.820918,34.3361506 116.092857,37.3107951 121.892347,37.3107951 C124.132143,37.3107951 126.096939,36.5039421 126.096939,36.5039421 L125.418878,32.1678585 C125.418878,32.1678585 124.318878,32.4901993 122.966837,32.4901993 C121.309694,32.4901993 119.404592,31.7894585 119.404592,29.5415824 L119.404592,21.2393062 L126.096939,21.2393062" id="Fill-3" fill="#000000"></path>
            <path d="M61.4892857,26.8552427 L64.9545918,17.6054649 L68.4163265,26.8552427 L61.4892857,26.8552427 L61.4892857,26.8552427 Z M72.1765306,36.8958564 L78.122449,36.8958564 L67.1107143,7.48126278 L62.7979592,7.48126278 L51.7841837,36.8958564 L57.7306122,36.8958564 L59.8336735,31.280921 L70.0729592,31.280921 L72.1765306,36.8958564 L72.1765306,36.8958564 Z" id="Fill-4" fill="#000000"></path>
            <path d="M138.907653,32.305504 C135.793367,32.305504 133.269388,29.8829432 133.269388,26.8947845 C133.269388,23.9091284 135.793367,21.486067 138.907653,21.486067 C142.022959,21.486067 144.545918,23.9091284 144.545918,26.8947845 C144.545918,29.8829432 142.022959,32.305504 138.907653,32.305504 M138.907653,16.3005855 C132.853061,16.3005855 127.942347,21.0125665 127.942347,26.8212067 C127.942347,32.631849 132.853061,37.3423284 138.907653,37.3423284 C144.960204,37.3423284 149.870918,32.631849 149.870918,26.8212067 C149.870918,21.0125665 144.960204,16.3005855 138.907653,16.3005855" id="Fill-5" fill="#000000"></path>
            <path d="M107.180102,10.9324109 C107.180102,12.8839739 105.566837,14.4646448 103.577041,14.4646448 C101.590306,14.4646448 99.9785714,12.8839739 99.9785714,10.9324109 C99.9785714,8.98034743 101.590306,7.39967653 103.577041,7.39967653 C105.566837,7.39967653 107.180102,8.98034743 107.180102,10.9324109" id="Fill-6" fill="#000000"></path>
            <g id="Group-10">
                <mask id="mask-2" fill="white">
                    <use xlink:href="#path-1"></use>
                </mask>
                <g id="Clip-8"></g>
                <path d="M18.8219388,10.6260871 C18.8219388,15.7259781 14.6086735,19.8588469 9.41020408,19.8588469 C4.2127551,19.8588469 0,15.7259781 0,10.6260871 C0,5.52719717 4.2127551,1.39382785 9.41020408,1.39382785 C14.6086735,1.39382785 18.8219388,5.52719717 18.8219388,10.6260871" id="Fill-7" fill="#00AAFF" mask="url(#mask-2)"></path>
                <path d="M42.3744898,31.7288945 C42.3744898,37.9334533 37.2469388,42.9632702 30.922449,42.9632702 C24.6,42.9632702 19.4714286,37.9334533 19.4714286,31.7288945 C19.4714286,25.5238353 24.6,20.4970215 30.922449,20.4970215 C37.2469388,20.4970215 42.3744898,25.5238353 42.3744898,31.7288945" id="Fill-9" fill="#97CF26" mask="url(#mask-2)"></path>
            </g>
            <path d="M38.2928571,10.6260871 C38.2928571,14.6193083 34.9923469,17.85623 30.922449,17.85623 C26.8530612,17.85623 23.552551,14.6193083 23.552551,10.6260871 C23.552551,6.63336648 26.8530612,3.39594426 30.922449,3.39594426 C34.9923469,3.39594426 38.2928571,6.63336648 38.2928571,10.6260871" id="Fill-11" fill="#FF6163"></path>
            <path d="M14.7387755,31.7288945 C14.7387755,34.6164469 12.3540816,36.9564204 9.41020408,36.9564204 C6.46785714,36.9564204 4.08163265,34.6164469 4.08163265,31.7288945 C4.08163265,28.8403411 6.46785714,26.5013686 9.41020408,26.5013686 C12.3540816,26.5013686 14.7387755,28.8403411 14.7387755,31.7288945" id="Fill-12" fill="#CF6CF7"></path>
        </g>
    </g>
</svg>